<svg xmlns="http://www.w3.org/2000/svg" width="24" height="24"><g id="_arrow_drop_down_circle" data-name=" arrow_drop_down_circle" transform="translate(0 24) rotate(-90)"><rect id="Path" width="24" height="24" transform="translate(0 0)" fill="rgba(0,0,0,0)"/><path id="Icon" d="M10,20A10,10,0,1,1,20,10,10.011,10.011,0,0,1,10,20ZM7.21,9a.492.492,0,0,0-.462.307.5.5,0,0,0,.112.553l2.79,2.79a.486.486,0,0,0,.346.141.511.511,0,0,0,.364-.151L13.15,9.85a.484.484,0,0,0,.115-.538A.492.492,0,0,0,12.8,9Z" transform="translate(2 2)" fill="#fff"/></g></svg>