<svg xmlns="http://www.w3.org/2000/svg" width="20" height="20"><g id="_assignment" data-name=" assignment" transform="translate(-542 -154)"><rect id="Path" width="20" height="20" transform="translate(542 154)" fill="rgba(0,0,0,0)"/><path id="Icon" d="M12.445,16H1.556A1.58,1.58,0,0,1,0,14.4V3.2A1.581,1.581,0,0,1,1.556,1.6H4.807A2.354,2.354,0,0,1,7,0,2.354,2.354,0,0,1,9.194,1.6h3.251A1.58,1.58,0,0,1,14,3.2V14.4A1.58,1.58,0,0,1,12.445,16ZM3.889,11.2a.8.8,0,0,0,0,1.6H7.778a.8.8,0,0,0,0-1.6Zm0-3.2a.8.8,0,0,0,0,1.6h6.222a.8.8,0,0,0,0-1.6Zm0-3.2a.8.8,0,0,0,0,1.6h6.222a.8.8,0,0,0,0-1.6ZM7,1.6a.8.8,0,1,0,.778.8A.791.791,0,0,0,7,1.6Z" transform="translate(545 155)" fill="#fff"/></g></svg>