<svg id="_zoom_in" data-name=" zoom_in" xmlns="http://www.w3.org/2000/svg" width="30" height="30"><rect id="Path" width="30" height="30" fill="rgba(0,0,0,0)"/><path id="Icon" d="M22,23.416A1.406,1.406,0,0,1,21,23l-6-6V15a10.417,10.417,0,0,1-6.437,2.126A9.5,9.5,0,0,1,7,17a8.029,8.029,0,0,1-7-7A9.067,9.067,0,0,1,8.918-.065,8.886,8.886,0,0,1,10,0a8.027,8.027,0,0,1,7,7,10.6,10.6,0,0,1-2,8h2l6,6a1.416,1.416,0,0,1-1,2.416ZM9,3a6,6,0,1,0,6,6A6.007,6.007,0,0,0,9,3Zm0,9a1.36,1.36,0,0,1-1-1V9H6a1.8,1.8,0,0,0-.447.089,1.586,1.586,0,0,1-.378.079.189.189,0,0,1-.127-.037A.163.163,0,0,1,5,9,1.332,1.332,0,0,1,6,8H8V6A1.36,1.36,0,0,1,9,5a.158.158,0,0,1,.136.054c.069.092.013.29-.047.5A1.8,1.8,0,0,0,9,6V8h2a1.332,1.332,0,0,1,1,1c0,.115-.056.168-.175.168a1.581,1.581,0,0,1-.378-.079A1.8,1.8,0,0,0,11,9H9v2a1.8,1.8,0,0,0,.089.446c.06.21.116.408.047.5A.158.158,0,0,1,9,12Z" transform="translate(3.002 2.999)" fill="#005384"/></svg>